<?xml version="1.0" encoding="utf-8"?>
<!-- Generator: Adobe Illustrator 16.0.0, SVG Export Plug-In . SVG Version: 6.00 Build 0)  -->
<!DOCTYPE svg PUBLIC "-//W3C//DTD SVG 1.1//EN" "http://www.w3.org/Graphics/SVG/1.1/DTD/svg11.dtd">
<svg version="1.1" id="Layer_1" xmlns="http://www.w3.org/2000/svg" xmlns:xlink="http://www.w3.org/1999/xlink" x="0px" y="0px"
	 width="100px" height="100.08px" viewBox="0 0 100 100.08" enable-background="new 0 0 100 100.08" xml:space="preserve">
<g id="XMLID_1_">
	<g>
		<path d="M50,0c27.69,0,50,22.31,50,50c0,27.68-22.31,50-50,50C22.31,100,0,77.68,0,50C0,22.31,22.31,0,50,0z M78.29,69.69
			c0.02-8.391,0.01-16.78,0.01-25.17c0-0.37-0.05-0.74-0.08-1.09c-4.46,0-8.779,0-13.279,0c1.71,3.58,2.26,7.209,1.399,10.98
			c-0.88,3.83-2.91,6.939-6.08,9.28C54.98,67.59,47.79,68.01,42.4,64.34c-7.71-5.25-9.08-12.49-5.86-20.89c-5.09,0-10.16,0-15.32,0
			c0,0.55,0,1.02,0,1.49c0,7.87,0.2,15.75-0.06,23.6c-0.22,6.47,5.81,10.5,10.39,10.51c12.86,0.021,25.73,0.021,38.601,0
			c2.13-0.01,3.979-0.819,5.47-2.359C77.52,74.74,78.29,72.34,78.29,69.69z M78.27,39.8c0-3.37,0.16-6.51-0.039-9.62
			c-0.29-4.65-3.771-8.19-7.91-8.19c-13.04-0.03-26.08-0.04-39.13,0c-4.41,0.01-9.16,3.68-9.76,7.97c-0.44,3.18-0.08,6.48-0.08,9.75
			c0.29,0.03,0.55,0.08,0.8,0.08c5.48,0.01,10.96,0.03,16.44-0.03c0.56,0,1.23-0.36,1.68-0.75c6.22-5.36,14.85-5.36,21.1-0.01
			c0.53,0.45,1.36,0.75,2.07,0.76c3.47,0.08,6.949,0.04,10.43,0.04C75.29,39.8,76.72,39.8,78.27,39.8z M63.56,51.29
			c0.101-7.33-5.42-13.09-12.59-13.17c-7.07-0.07-12.8,5.52-12.93,12.62C37.92,57.72,43.66,63.6,50.68,63.67
			C57.63,63.73,63.47,58.12,63.56,51.29z"/>
		<path d="M71.15,27.2c0.04,2.43,0.01,4.87,0.01,7.3c-0.01,1.13-0.69,1.71-1.72,1.73c-2.431,0.06-4.86,0.06-7.29,0
			c-1.061-0.03-1.65-0.67-1.631-1.79c0.021-1.18,0-2.35,0-3.52c0.011-1.22,0-2.44,0.011-3.65c0-1.13,0.6-1.7,1.68-1.71
			c2.44-0.03,4.87-0.02,7.3,0C70.55,25.57,71.13,26.18,71.15,27.2z"/>
	</g>
	<g>
		<path fill="none" stroke="#000000" stroke-miterlimit="10" d="M78.27,39.8c-1.55,0-2.979,0-4.399,0c-3.48,0-6.96,0.04-10.43-0.04
			c-0.71-0.01-1.54-0.31-2.07-0.76c-6.25-5.35-14.88-5.35-21.1,0.01c-0.45,0.39-1.12,0.75-1.68,0.75
			c-5.48,0.06-10.96,0.04-16.44,0.03c-0.25,0-0.51-0.05-0.8-0.08c0-3.27-0.36-6.57,0.08-9.75c0.6-4.29,5.35-7.96,9.76-7.97
			c13.05-0.04,26.09-0.03,39.13,0c4.14,0,7.62,3.54,7.91,8.19C78.43,33.29,78.27,36.43,78.27,39.8z"/>
		<path fill="none" stroke="#000000" stroke-miterlimit="10" d="M60.52,30.92c0,1.17,0.021,2.34,0,3.52
			c-0.02,1.12,0.57,1.76,1.631,1.79c2.43,0.06,4.859,0.06,7.29,0c1.029-0.02,1.71-0.6,1.72-1.73c0-2.43,0.03-4.87-0.01-7.3
			c-0.021-1.02-0.601-1.63-1.641-1.64c-2.43-0.02-4.859-0.03-7.3,0c-1.08,0.01-1.68,0.58-1.68,1.71
			C60.52,28.48,60.53,29.7,60.52,30.92z"/>
	</g>
</g>
</svg>
